# xmcd
#
# Track frame offsets:
#	150
#	17777
#	35226
#	55294
#	74570
#	89648
#	108208
#	122363
#	139314
#	156196
#	173798
#	191215
#	209134
#	226273
#	236406
#	255023
#	272700
#	287264
#
# Disc length: 4059 seconds
#
# Revision: 3
# Processed by: cddbd v1.5.1PL2 Copyright (c) Steve Scherf et al.
# Submitted via: EasyCDDAExtractor 8.2.1.1
#
DISCID=060fd912
DTITLE=Various Artist - Top Hits USA T703
DYEAR=2003
DGENRE=Top 40
TTITLE0=Jim Brickman ft. Colin Raye - Peace (WhereThe Heart Is)
TTITLE1=Jack Johnson  - Wasting Time
TTITLE2=Jeff Prior Band - Loverland
TTITLE3=Bow Wow - Let's Get Down
TTITLE4=Dakona - Good (I've Got a Lot To Learn)
TTITLE5=112 ft. Supercat - Na Na Na (Super Clean w. Rap)
TTITLE6=Frankie J - We Still
TTITLE7=Groove Armada - Easy (Edit)
TTITLE8=DMX - Where Da Hood At? (Radio)
TTITLE9=Blue October - Calling You
TTITLE10=Jason Nevins Presents Holly - I'm In Heaven (Radio Edit)
TTITLE11=Gus Black - Dry Kisses
TTITLE12=Lonestar - Walking In Mempis
TTITLE13=Tracy Byrd - Drinkin' Bone
TTITLE14=Ryan Tyler - Run , Run, Run
TTITLE15=Craig Morgan - Every Friday Afternoon
TTITLE16=Sawyer Brown - I'll Be Around
TTITLE17=Godsmack - Serenity (Radio Edit)
EXTD=YEAR: 2003
EXTT0=
EXTT1=
EXTT2=
EXTT3=
EXTT4=
EXTT5=
EXTT6=
EXTT7=
EXTT8=
EXTT9=
EXTT10=
EXTT11=
EXTT12=
EXTT13=
EXTT14=
EXTT15=
EXTT16=
EXTT17=
PLAYORDER=
